<?xml version="1.0" standalone="no"?>
<!DOCTYPE svg PUBLIC "-//W3C//DTD SVG 20010904//EN"
 "http://www.w3.org/TR/2001/REC-SVG-20010904/DTD/svg10.dtd">
<svg version="1.0" xmlns="http://www.w3.org/2000/svg"
 width="512.000000pt" height="512.000000pt" viewBox="0 0 512.000000 512.000000"
 preserveAspectRatio="xMidYMid meet">

<g transform="translate(0.000000,512.000000) scale(0.100000,-0.100000)"
fill="#000000" stroke="none">
<path d="M1556 4924 c-228 -46 -287 -77 -382 -199 l-46 -60 -426 -5 c-473 -6
-468 -6 -562 -75 -27 -19 -62 -57 -79 -83 -64 -100 -61 -19 -61 -1617 0 -1607
-4 -1518 65 -1622 36 -55 98 -103 167 -131 39 -15 117 -17 856 -20 l812 -3 0
-224 0 -224 -122 -3 -123 -3 -3 -102 -3 -103 -813 0 c-711 0 -815 -2 -826 -15
-10 -12 -10 -18 0 -30 11 -13 307 -15 2550 -15 2243 0 2539 2 2550 15 10 12
10 18 0 30 -11 13 -115 15 -826 15 l-813 0 -3 103 -3 102 -122 3 -123 3 0 224
0 224 813 3 c738 3 816 5 855 20 69 28 131 76 167 131 69 104 65 15 65 1622 0
1598 3 1517 -61 1617 -35 53 -105 109 -170 136 -41 16 -133 17 -1240 22
l-1196 5 -73 78 c-99 106 -180 145 -386 187 -83 16 -178 30 -210 29 -33 0
-135 -16 -228 -35z m-478 -331 c-2 -5 -14 -36 -27 -70 l-23 -62 -375 -3 -374
-3 -39 -41 c-31 -34 -39 -51 -45 -95 -3 -30 -5 -632 -3 -1339 3 -1269 3 -1285
23 -1320 12 -21 39 -44 65 -58 l45 -22 2245 2 2245 3 36 23 c74 45 69 -61 69
1419 0 1299 -1 1329 -20 1360 -10 18 -31 40 -47 50 -26 17 -90 18 -1166 23
l-1138 5 -24 60 c-14 33 -25 63 -25 68 0 4 528 6 1173 5 l1172 -3 47 -23 c66
-33 134 -111 153 -176 13 -46 15 -237 13 -1532 l-3 -1479 -23 -46 c-29 -59
-82 -112 -141 -141 l-46 -23 -2280 0 -2280 0 -52 24 c-58 26 -123 90 -150 148
-17 36 -18 117 -18 1538 l0 1500 24 45 c44 85 111 139 198 159 46 11 796 14
791 4z m-61 -276 c1 -53 12 -120 31 -189 l28 -108 -28 -27 c-74 -71 -49 -202
47 -247 34 -17 35 -18 35 -75 0 -137 37 -241 134 -376 13 -18 9 -30 -34 -123
-48 -101 -49 -102 -75 -90 -21 9 -28 9 -39 -3 -19 -20 -492 -1047 -501 -1087
-10 -47 11 -123 47 -167 36 -43 166 -110 234 -121 40 -6 44 -9 44 -35 l0 -29
-181 0 c-99 0 -189 4 -199 10 -10 5 -23 24 -29 41 -8 23 -11 410 -11 1336 0
1180 2 1308 16 1339 l16 34 232 0 231 0 2 -83z m3818 58 l25 -24 0 -1329 0
-1329 -26 -24 -26 -24 -1086 0 -1087 0 -3 26 c-3 24 0 27 45 33 26 4 86 26
133 49 115 57 145 98 145 200 l0 72 -245 527 c-134 290 -250 530 -257 533 -7
2 -24 0 -36 -4 -22 -9 -26 -3 -72 94 l-47 104 30 38 c69 88 108 198 118 334 5
64 11 89 20 89 21 0 80 57 94 90 19 47 7 115 -28 159 l-31 38 29 114 c19 73
30 140 30 187 l0 72 1125 0 1126 0 24 -25z m-3225 -330 c160 -48 200 -47 355
1 183 56 169 58 207 -22 36 -75 118 -170 172 -199 l36 -20 0 -118 c0 -127 -17
-199 -66 -283 -39 -66 -50 -72 -82 -42 -15 14 -80 66 -146 116 -127 99 -153
108 -199 72 -34 -27 -41 -66 -22 -119 19 -56 20 -54 -15 -36 -37 19 -87 19
-124 0 -28 -15 -28 -14 -21 7 3 13 9 44 12 70 5 41 2 50 -20 72 -37 37 -75 34
-134 -10 -115 -88 -180 -140 -214 -171 l-35 -33 -21 28 c-68 92 -103 210 -103
348 l0 90 61 43 c67 48 136 134 163 205 22 57 12 57 196 1z m900 -158 c0 -36
-15 -63 -42 -78 -20 -11 -21 -10 -15 27 4 22 12 57 18 79 10 37 12 38 25 20 8
-10 14 -32 14 -48z m-1398 -14 c9 -38 15 -70 13 -72 -2 -1 -15 8 -29 22 -26
26 -33 66 -20 101 11 29 20 17 36 -51z m544 -378 c3 -8 -35 -138 -86 -289
l-91 -274 -117 55 c-64 30 -119 56 -121 59 -2 2 24 60 58 128 l61 125 136 106
c74 58 140 105 145 105 5 0 12 -7 15 -15z m394 -66 c157 -121 167 -132 232
-264 l59 -119 -112 -53 c-62 -29 -118 -53 -125 -53 -19 0 -197 540 -183 557 6
7 14 13 18 13 4 0 54 -36 111 -81z m-200 -104 c9 -8 25 -15 36 -15 16 0 25
-15 43 -71 12 -39 21 -73 18 -75 -10 -10 -177 -16 -249 -10 l-76 8 25 74 c17
52 30 74 41 74 10 0 31 9 47 21 34 23 86 20 115 -6z m152 -316 c33 -99 34
-106 8 -114 -11 -3 -20 -13 -20 -21 0 -12 -32 -14 -194 -14 l-193 0 -30 27
-30 27 30 91 30 90 186 -2 185 -2 28 -82z m-589 -112 c53 -25 97 -49 97 -54 0
-14 -453 -987 -472 -1016 -46 -66 -126 -76 -228 -30 -114 53 -154 116 -126
204 7 24 102 235 211 469 109 234 210 453 226 487 l28 62 83 -38 c46 -22 127
-59 181 -84z m1248 -382 c255 -550 262 -569 217 -635 -25 -38 -140 -105 -192
-113 -50 -7 -99 10 -131 45 -19 20 -117 220 -257 523 -125 270 -228 496 -230
503 -2 8 64 44 177 96 99 46 181 83 182 82 1 0 106 -226 234 -501z m-901 -24
c0 -334 -6 -311 76 -311 l44 0 0 -59 c0 -43 4 -60 15 -65 26 -9 45 22 45 75
l0 49 35 0 35 0 0 -59 c0 -39 4 -61 13 -64 28 -10 37 6 37 64 0 59 0 59 30 59
30 0 30 -1 30 -54 0 -57 15 -81 44 -70 14 5 16 30 16 192 0 102 4 182 8 177 5
-6 71 -145 147 -310 76 -165 146 -312 157 -327 10 -15 32 -35 48 -45 26 -15
30 -23 30 -60 l0 -43 -785 0 -785 0 0 38 c0 32 7 43 48 78 45 39 58 66 276
537 l230 497 103 0 103 0 0 -299z m308 187 l52 -113 0 -157 0 -158 -150 0
-150 0 0 270 0 270 98 0 98 0 52 -112z m1092 -1793 l0 -225 -600 0 -600 0 0
225 0 225 600 0 600 0 0 -225z m250 -360 l0 -75 -850 0 -850 0 0 75 0 75 850
0 850 0 0 -75z"/>
<path d="M2493 1490 c-84 -51 -84 -176 0 -225 86 -51 197 11 197 112 0 102
-110 166 -197 113z m111 -61 c30 -24 34 -63 10 -97 -11 -16 -25 -22 -54 -22
-44 0 -70 26 -70 71 0 30 40 69 70 69 10 0 29 -9 44 -21z"/>
<path d="M3577 3962 c-12 -13 -17 -43 -19 -122 l-3 -105 -105 -3 c-144 -4
-140 1 -140 -173 0 -172 -3 -169 147 -169 l103 0 0 -109 c0 -89 3 -111 17
-122 12 -10 51 -14 149 -14 171 0 168 -3 172 140 l4 105 97 0 c143 0 141 -2
141 169 0 175 3 171 -137 171 l-101 0 -4 104 c-4 147 -3 146 -173 146 -114 0
-134 -2 -148 -18z m253 -138 c0 -90 9 -130 34 -146 6 -4 57 -8 114 -8 l102 0
0 -110 0 -110 -109 0 c-139 0 -141 -2 -141 -142 l0 -98 -105 0 -105 0 0 98 c0
140 -2 142 -141 142 l-109 0 0 110 0 110 103 0 c142 0 141 -1 145 139 l4 111
104 0 104 0 0 -96z"/>
<path d="M3022 2958 c-18 -18 -15 -36 7 -48 13 -6 250 -10 698 -10 576 0 682
2 699 14 15 12 17 18 8 33 -11 17 -48 18 -706 21 -531 2 -697 -1 -706 -10z"/>
<path d="M3017 2673 c-15 -15 -6 -43 16 -48 12 -3 333 -4 712 -3 l690 3 0 25
0 25 -706 3 c-388 1 -709 -1 -712 -5z"/>
<path d="M3020 2385 c-7 -8 -10 -22 -6 -30 5 -13 90 -15 711 -15 621 0 706 2
711 15 4 8 1 22 -6 30 -19 23 -1391 23 -1410 0z"/>
<path d="M3014 2095 c-4 -8 -1 -22 6 -30 19 -23 1391 -23 1410 0 7 8 10 22 6
30 -5 13 -90 15 -711 15 -621 0 -706 -2 -711 -15z"/>
<path d="M1530 3838 c-103 -32 -124 -45 -114 -71 8 -23 23 -22 138 13 55 17
101 30 103 30 11 0 0 49 -13 54 -9 3 -16 6 -17 5 -1 0 -45 -14 -97 -31z"/>
<path d="M1920 3855 c-7 -8 -10 -21 -7 -29 6 -16 164 -68 212 -70 26 -1 30 3
30 23 0 22 -9 28 -88 52 -129 40 -133 41 -147 24z"/>
<path d="M1502 3734 c-27 -19 -29 -64 -4 -87 58 -53 137 28 82 83 -24 24 -48
25 -78 4z"/>
<path d="M2002 3734 c-26 -18 -30 -65 -6 -88 23 -24 70 -20 88 6 21 30 20 54
-4 78 -24 24 -48 25 -78 4z"/>
<path d="M1764 3656 c-3 -7 -4 -42 -2 -77 2 -53 6 -64 22 -67 10 -2 22 2 27
10 10 15 12 109 3 132 -7 20 -43 21 -50 2z"/>
<path d="M7 197 c-13 -34 6 -37 219 -35 201 3 209 4 209 23 0 19 -8 20 -211
23 -171 2 -213 0 -217 -11z"/>
<path d="M608 198 c-15 -39 -66 -38 1952 -38 2018 0 1967 -1 1952 38 -6 18
-3898 18 -3904 0z"/>
<path d="M4684 195 c-13 -32 7 -35 216 -35 212 0 225 2 212 38 -7 19 -421 17
-428 -3z"/>
</g>
</svg>
